<svg xmlns="http://www.w3.org/2000/svg" width="48" height="48" viewBox="0 0 48 48"><path d="M6.432 0h35.136A6.432 6.432 0 0148 6.432v35.136A6.432 6.432 0 0141.568 48H6.432A6.432 6.432 0 010 41.568V6.432A6.432 6.432 0 016.432 0z" fill="#d39e27"/><path d="M43.007 34.52l-5.377-5.377a2 2 0 00-2.829 0l-2.439 2.441a2 2 0 01-2.64.166 45.024 45.024 0 01-6.147-5.352 44.99 44.99 0 01-5.352-6.148 2 2 0 01.168-2.64l2.438-2.438a2 2 0 000-2.83l-5.375-5.376a2 2 0 00-2.829 0l-3.242 3.243c-3.438 3.438 1.11 13.97 8.76 21.622s18.185 12.2 21.622 8.76l3.242-3.244a2 2 0 000-2.827z" fill="#fff"/></svg>