<svg xmlns="http://www.w3.org/2000/svg" width="36.316" height="37.54" viewBox="0 0 36.316 37.54"><path d="M6.771 19.84l2.493-1.311 2.5 1.311-.475-2.777 2.017-1.965-2.79-.409-1.252-2.528-1.245 2.528-2.79.409 2.016 1.965zm4.143-13.826l1.951-1.026 1.954 1.026-.373-2.175L16.027 2.3l-2.185-.321L12.865 0l-.974 1.979-2.184.321 1.578 1.539zM.981 8.837l1.586-.834 1.587.834-.3-1.767 1.284-1.251-1.776-.26-.793-1.608-.793 1.608-1.775.26 1.282 1.248z" fill="#d39e27"/><path d="M23.648 1.766a17.153 17.153 0 01-23.1 23.1 18.335 18.335 0 1023.1-23.1z" fill="#d39e27"/></svg>