<svg xmlns="http://www.w3.org/2000/svg" width="40.126" height="38.222" viewBox="0 0 40.126 38.222"><path d="M40.126 12.781l-2.853.4a19.108 19.108 0 10-18.162 25.04c.562 0 1.122-.024 1.675-.073l-.385-4.433q-.635.054-1.29.055A14.673 14.673 0 1132.77 13.815l-2.438.343 6.289 9.189 1.406-4.238h.195c0-.172-.02-.339-.025-.51z" fill="#d39e27"/><path d="M31.268 27.309c-.24.355-.5.7-.768 1.037l3.46 2.8q.525-.649 1-1.345l-3.688-2.49zm-6.327 5.258a14.592 14.592 0 01-2.217.756l1.092 4.315a18.972 18.972 0 002.9-.989l-1.772-4.082zm2.07-1.106l2.4 3.747a19.094 19.094 0 002.434-1.851l-2.963-3.316a14.659 14.659 0 01-1.871 1.42zM16.916 18.825a3.948 3.948 0 001.132-2.7 3.142 3.142 0 00-3.425-3.18 3.218 3.218 0 00-3.509 2.884.159.159 0 00.132.2l1.8.294c.116.017.18-.032.18-.131.1-.852.559-1.311 1.312-1.311a1.171 1.171 0 011.213 1.278 2.29 2.29 0 01-.655 1.542l-3.917 4.654a.3.3 0 00-.083.229v1.524a.155.155 0 00.164.164h6.622a.155.155 0 00.164-.164V22.48a.155.155 0 00-.164-.163h-3.9v-.033zm10.905 3.819a.155.155 0 00.162-.164v-1.655a.155.155 0 00-.162-.165h-.738l-.1-.1v-2.407a.155.155 0 00-.164-.164h-1.9a.156.156 0 00-.165.164v2.409l-.1.1h-2.048v-.049l3.341-7.326c.033-.1 0-.165-.113-.165h-2.083a.218.218 0 00-.228.132l-3.344 7.358-.032.2v1.663a.155.155 0 00.164.164h4.342l.1.1v1.36a.155.155 0 00.165.164h1.9a.154.154 0 00.164-.164v-1.36l.1-.1z" fill="#d39e27"/></svg>