<svg xmlns="http://www.w3.org/2000/svg" width="42.414" height="33.291" viewBox="0 0 42.414 33.291"><path d="M42.304 4.739a5.866 5.866 0 00-1.215-2.57 5.02 5.02 0 00-.4-.443 5.87 5.87 0 00-4.16-1.724H5.883a5.878 5.878 0 00-4.16 1.724 5.178 5.178 0 00-.4.443A5.8 5.8 0 00.114 4.741a5.7 5.7 0 00-.115 1.144V27.41a5.846 5.846 0 00.487 2.336 5.768 5.768 0 001.236 1.823c.132.131.263.252.405.372a5.878 5.878 0 003.754 1.352h30.647a5.84 5.84 0 003.755-1.357 5.137 5.137 0 00.405-.367 5.9 5.9 0 001.242-1.823v-.005a5.823 5.823 0 00.481-2.331V5.884a6.061 6.061 0 00-.107-1.145zM3.853 3.852a2.842 2.842 0 012.031-.843h30.647a2.827 2.827 0 012.288 1.144l-16.063 14a2.357 2.357 0 01-3.1 0L3.599 4.148a2.136 2.136 0 01.254-.295zM3.01 27.407V7.263l11.624 10.141L3.017 27.533a.846.846 0 01-.007-.125zm33.52 2.873H5.883a2.835 2.835 0 01-1.423-.377l12.257-10.682 1.144 1a5.094 5.094 0 006.693 0l1.144-1 12.254 10.683a2.839 2.839 0 01-1.422.377zm2.874-2.873a.892.892 0 01-.006.125L27.78 17.409l11.624-10.14z" fill="#d39e27"/></svg>