<svg xmlns="http://www.w3.org/2000/svg" width="45.115" height="45.115" viewBox="0 0 45.115 45.115"><path d="M22.558 10.409a12.149 12.149 0 1012.149 12.153 12.148 12.148 0 00-12.149-12.153zM20.788 0h3.538v6.811h-3.538zm0 38.304h3.538v6.811h-3.538zM5.356 7.857l2.502-2.502 4.816 4.816-2.502 2.502zm27.085 27.085l2.502-2.502 4.817 4.817-2.502 2.502zM0 20.788h6.81v3.538H0zm38.303 0h6.812v3.538h-6.812zM5.355 37.257l4.816-4.816 2.502 2.502-4.816 4.816zm27.086-27.084l4.815-4.815 2.502 2.502-4.815 4.815z" fill="#d39e27"/></svg>