<svg xmlns="http://www.w3.org/2000/svg" width="37.457" height="37.457" viewBox="0 0 37.457 37.457"><path d="M13.253 16.486l4.742 3.659.066.038.029.017a1.087 1.087 0 001.315-.291l.032-.03 5.813-6.877a.789.789 0 10-1.167-1.039l-5.434 5.8-4.195-2.921a1.027 1.027 0 00-1.2 1.64zm-5.905 2.242a6.991 6.991 0 01.032-.749H4.403c-.018.246-.023.5-.023.749s.005.5.023.75H7.38a7.01 7.01 0 01-.032-.75zm5.265-9.598c.281-.178.569-.346.86-.5l.114-.055-1.483-2.577a11.45 11.45 0 00-1.084.623l1.484 2.578zm-6.609 2.973l2.577 1.484.624-1.082-2.578-1.484a11.5 11.5 0 00-.623 1.082zm22.819 11.88c-.155.292-.318.579-.5.856l-.074.109 2.578 1.484c.228-.351.436-.707.628-1.077l-2.571-1.489zm-20.187-.005l-.06-.113-2.572 1.483a10.649 10.649 0 00.622 1.083l2.579-1.486-.075-.109a9.258 9.258 0 01-.494-.858zm3.977 4.343l-.109-.074-1.484 2.578a11.638 11.638 0 001.084.628l1.483-2.578-.114-.055a9.451 9.451 0 01-.86-.499zM23.862 8.575l1.083.629 1.484-2.578a11.544 11.544 0 00-1.078-.623zM17.98 30.077v2.973c.247.022.5.027.748.027s.5 0 .749-.027v-3h-1.5zM19.477 7.38V4.407c-.246-.022-.5-.027-.749-.027s-.5 0-.748.027v3h1.5zm4.385 21.501l1.49 2.573c.37-.193.727-.4 1.078-.628l-1.484-2.578zm7.592-16.778a11.655 11.655 0 00-.628-1.083l-2.578 1.484.63 1.082zm1.601 5.876h-3.008v1.5h3.008c.019-.247.023-.5.023-.75s-.005-.504-.023-.75z" fill="#d39e27"/><path d="M18.725 0a18.729 18.729 0 1018.728 18.729A18.728 18.728 0 0018.725 0zm0 35.041a16.312 16.312 0 1111.534-4.778 16.254 16.254 0 01-11.534 4.778z" fill="#d39e27"/></svg>