<svg xmlns="http://www.w3.org/2000/svg" width="45" height="45" viewBox="0 0 45 45"><path d="M22.5 0A22.5 22.5 0 1045 22.5 22.5 22.5 0 0022.5 0zm.433 19.107h.022A4.508 4.508 0 0130.632 15a9 9 0 002.384-.837c.156-.076.314-.151.468-.235A4.5 4.5 0 0132.065 16a4.138 4.138 0 01-.556.382l.04-.006c-.013.008-.024.019-.038.027a9.034 9.034 0 002.119-.522c.15-.052.3-.1.45-.163a9.166 9.166 0 01-2.23 2.308q.013.289.013.583A12.813 12.813 0 0112.14 29.4a9.069 9.069 0 005.679-1.2 9.544 9.544 0 00.991-.647h-.025l.025-.018a4.441 4.441 0 01-4.2-3.127 4.247 4.247 0 001.7-.014c.105-.015.212-.027.315-.044-.014 0-.026-.009-.04-.012.014 0 .03 0 .044-.009a4.508 4.508 0 01-3.614-4.418v-.051a4.49 4.49 0 001.6.522c.141.024.283.045.425.058l-.028-.021h.039a4.484 4.484 0 01-1.532-5.738c.047-.09.09-.183.144-.27a12.79 12.79 0 008.157 4.583c.366.053.732.1 1.1.122z" fill="#fff"/></svg>