<svg id="レイヤー_1" data-name="レイヤー 1" xmlns="http://www.w3.org/2000/svg" viewBox="0 0 241.76 30.26"><defs><style>.cls-1{isolation:isolate}.cls-2{fill:#5ab43f}.cls-3{fill:#212121}</style></defs><g id="Co-Work_MdN" data-name="Co-Work MdN" class="cls-1"><g class="cls-1"><path class="cls-2" d="M21.26 22.4a1.36 1.36 0 01.48.09 1.29 1.29 0 01.46.31l2.68 2.82a11.11 11.11 0 01-4.41 3.47 15.45 15.45 0 01-6.27 1.17 15 15 0 01-5.95-1.13A12.82 12.82 0 013.79 26 13.72 13.72 0 011 21.29a17.52 17.52 0 01-1-5.93 15.58 15.58 0 011.12-6 13.8 13.8 0 017.94-7.78 16.86 16.86 0 016.18-1.1 16.05 16.05 0 013.09.29 14.76 14.76 0 012.71.8 13.07 13.07 0 012.32 1.22 11.18 11.18 0 011.88 1.57L23 7.42a2.79 2.79 0 01-.52.51 1.38 1.38 0 01-.84.23 1.45 1.45 0 01-.72-.16c-.21-.11-.44-.24-.68-.39l-.79-.5a6.06 6.06 0 00-1-.5 8.93 8.93 0 00-1.38-.39 9.17 9.17 0 00-1.85-.16 8.49 8.49 0 00-3.36.65 7.34 7.34 0 00-2.63 1.86 8.63 8.63 0 00-1.7 2.93 11.41 11.41 0 00-.61 3.86 11.93 11.93 0 00.61 4 8.76 8.76 0 001.66 2.93 7.07 7.07 0 002.45 1.81 7.36 7.36 0 003 .62 14.44 14.44 0 001.68-.09 6.63 6.63 0 001.41-.31 7 7 0 001.27-.59 8 8 0 001.19-.87 2.55 2.55 0 01.52-.33 1.33 1.33 0 01.55-.13z"/></g><g class="cls-1"><path class="cls-3" d="M35.74 8.88a12.05 12.05 0 014.3.74 9.27 9.27 0 015.49 5.47 12.14 12.14 0 01.77 4.43 12.4 12.4 0 01-.77 4.48A9.32 9.32 0 0140 29.51a11.84 11.84 0 01-4.3.75 12 12 0 01-4.33-.75 9.62 9.62 0 01-3.36-2.14A9.43 9.43 0 0125.87 24a12.4 12.4 0 01-.77-4.47 12.14 12.14 0 01.77-4.43 9.4 9.4 0 012.18-3.35 9.57 9.57 0 013.36-2.12 12.18 12.18 0 014.33-.75zm0 16.78a3.51 3.51 0 003.15-1.51 8.4 8.4 0 001-4.59 8.33 8.33 0 00-1-4.58 3.52 3.52 0 00-3.15-1.5A3.61 3.61 0 0032.52 15a8.24 8.24 0 00-1 4.58 8.3 8.3 0 001 4.59 3.6 3.6 0 003.22 1.49zM47.3 15.28h10.8v5H47.3z"/></g><g class="cls-1"><path class="cls-2" d="M55.4.8h5.68a2.52 2.52 0 011.47.4 1.86 1.86 0 01.77 1.06l4 15.2c.13.49.27 1 .4 1.58A15.74 15.74 0 0168 20.8c.13-.63.28-1.22.44-1.77s.31-1.08.46-1.57l4.72-15.2a2.13 2.13 0 01.77-1A2.28 2.28 0 0175.84.8h2a2.51 2.51 0 011.45.39 2 2 0 01.79 1.07l4.68 15.2c.15.47.3 1 .46 1.49s.3 1.09.42 1.69q.17-.88.33-1.68c.11-.53.23-1 .35-1.5l4-15.2a1.89 1.89 0 01.76-1A2.39 2.39 0 0192.52.8h5.32l-9 29.14h-6.12l-5.48-18.06c-.09-.28-.19-.59-.29-.92s-.2-.69-.29-1.06c-.09.37-.19.73-.29 1.06s-.2.64-.29.92l-5.56 18.06H64.4z"/></g><g class="cls-1"><path class="cls-3" d="M106.7 8.88a12.05 12.05 0 014.3.74 9.27 9.27 0 015.49 5.47 12.14 12.14 0 01.77 4.43 12.4 12.4 0 01-.77 4.47 9.32 9.32 0 01-5.49 5.52 11.84 11.84 0 01-4.3.75 12 12 0 01-4.33-.75A9.62 9.62 0 0199 27.37 9.43 9.43 0 0196.83 24a12.19 12.19 0 01-.77-4.47 11.94 11.94 0 01.77-4.43A9.4 9.4 0 0199 11.74a9.57 9.57 0 013.36-2.12 12.18 12.18 0 014.34-.74zm0 16.78a3.52 3.52 0 003.15-1.51 8.4 8.4 0 001-4.59 8.33 8.33 0 00-1-4.58 3.53 3.53 0 00-3.15-1.5 3.61 3.61 0 00-3.22 1.5 8.24 8.24 0 00-1 4.58 8.3 8.3 0 001 4.59 3.6 3.6 0 003.22 1.51zm11.96 4.28V9.2h3.68a3.37 3.37 0 01.77.08 1.4 1.4 0 01.52.25 1.08 1.08 0 01.37.47 5.31 5.31 0 01.19.68l.34 1.94a10.16 10.16 0 012.47-2.8 5.19 5.19 0 013.1-1 3.62 3.62 0 012.28.68l-.8 4.56a.91.91 0 01-.32.59 1.13 1.13 0 01-.64.17 4.16 4.16 0 01-.8-.09 6.28 6.28 0 00-1.16-.09 4.26 4.26 0 00-3.84 2.6v12.7zM139.38 0v16.78h.92a2 2 0 00.89-.16 1.79 1.79 0 00.59-.58l3.92-5.84a2 2 0 01.81-.76 2.6 2.6 0 011.19-.24h5.68L148 16.58a6.16 6.16 0 01-.83.92 6.77 6.77 0 01-1 .72 6 6 0 011.56 1.8l5.84 9.92H148a3 3 0 01-1.21-.23 1.75 1.75 0 01-.83-.81l-3.92-7.34a1.57 1.57 0 00-.58-.65 2.09 2.09 0 00-.9-.15h-1.2v9.18h-6.2V0zm36.23 18.2c.24.55.48 1.11.71 1.68q.33-.89.72-1.71c.25-.55.51-1.09.78-1.61l7.48-14.74a2.42 2.42 0 01.41-.59 1.33 1.33 0 01.47-.31 1.55 1.55 0 01.59-.1h5.93v29.12h-6V13.18q0-1.21.12-2.64l-7.72 15a2.57 2.57 0 01-1 1.06 2.69 2.69 0 01-1.39.36h-.92a2.67 2.67 0 01-1.39-.36 2.5 2.5 0 01-1-1.06l-7.76-15c0 .47.09.93.12 1.39s0 .88 0 1.27v16.74h-6V.82h5.93a1.59 1.59 0 01.59.1 1.42 1.42 0 01.47.31 2.73 2.73 0 01.41.59l7.5 14.8c.44.5.7 1.03.95 1.58z"/></g><path d="M210.08 29.94a1.73 1.73 0 01-1-.26 1.34 1.34 0 01-.55-.78l-.48-1.58a13.2 13.2 0 01-1.3 1.2 8.67 8.67 0 01-1.47.93 8 8 0 01-1.7.6 8.82 8.82 0 01-2 .21 6.39 6.39 0 01-3-.72 6.82 6.82 0 01-2.38-2.08 10.49 10.49 0 01-1.57-3.33 16.16 16.16 0 01-.57-4.49 13.9 13.9 0 01.64-4.31 10.44 10.44 0 011.81-3.44 8.34 8.34 0 012.81-2.27A7.93 7.93 0 01203 8.8a7 7 0 012.71.47 7.64 7.64 0 012 1.23V0h6.2v29.94zm-6.28-4.44a5.22 5.22 0 001.23-.13 4.67 4.67 0 001-.37 4.83 4.83 0 00.87-.6 8.17 8.17 0 00.81-.84v-8.8a4.14 4.14 0 00-1.53-1.09 4.67 4.67 0 00-1.71-.31 3.59 3.59 0 00-1.58.34 3.22 3.22 0 00-1.25 1.09 5.67 5.67 0 00-.83 1.95 12.13 12.13 0 00-.3 2.9 13.48 13.48 0 00.24 2.76 5.58 5.58 0 00.67 1.81 2.56 2.56 0 001 1 2.93 2.93 0 001.38.29z" fill="#d39e27"/><g class="cls-1"><path class="cls-3" d="M220.62.84a2.13 2.13 0 01.54.15 1.86 1.86 0 01.46.31 5.71 5.71 0 01.5.54L236 19.34c-.06-.56-.1-1.1-.12-1.63s0-1 0-1.49V.8h6v29.14h-3.52a3.24 3.24 0 01-1.32-.24 2.77 2.77 0 01-1-.88l-13.9-17.36c0 .51.07 1 .1 1.49s0 .94 0 1.37v15.62h-6V.8h3.56a5.22 5.22 0 01.82.04z"/></g></g></svg>